<svg xmlns="http://www.w3.org/2000/svg" xmlns:xlink="http://www.w3.org/1999/xlink" width="500" zoomAndPan="magnify" viewBox="0 0 375 374.999991" height="500" preserveAspectRatio="xMidYMid meet" version="1.0"><defs><clipPath id="2136b1e72a"><path d="M 184.90625 74.316406 L 325.371094 74.316406 L 325.371094 293.746094 L 184.90625 293.746094 Z M 184.90625 74.316406 " clip-rule="nonzero"/></clipPath><clipPath id="681b6507f8"><path d="M 1.078125 256 L 241 256 L 241 351 L 1.078125 351 Z M 1.078125 256 " clip-rule="nonzero"/></clipPath><clipPath id="ac822c09d6"><path d="M 86.492188 24.605469 L 325.371094 24.605469 L 325.371094 119 L 86.492188 119 Z M 86.492188 24.605469 " clip-rule="nonzero"/></clipPath><clipPath id="a72a14e66f"><path d="M 1.078125 81 L 143 81 L 143 301 L 1.078125 301 Z M 1.078125 81 " clip-rule="nonzero"/></clipPath><clipPath id="d65fa3f0aa"><path d="M 142 155.660156 L 283 155.660156 L 283 374.8125 L 142 374.8125 Z M 142 155.660156 " clip-rule="nonzero"/></clipPath><clipPath id="4b771383ee"><path d="M 101.488281 187 L 197 187 L 197 234.550781 L 101.488281 234.550781 Z M 101.488281 187 " clip-rule="nonzero"/></clipPath><clipPath id="fbad5fd257"><path d="M 101.488281 140.03125 L 162 140.03125 L 162 188 L 101.488281 188 Z M 101.488281 140.03125 " clip-rule="nonzero"/></clipPath><clipPath id="7cdf7779cd"><path d="M 165 187 L 225.339844 187 L 225.339844 234.550781 L 165 234.550781 Z M 165 187 " clip-rule="nonzero"/></clipPath><clipPath id="d261b9617b"><path d="M 130 140.03125 L 225.339844 140.03125 L 225.339844 188 L 130 188 Z M 130 140.03125 " clip-rule="nonzero"/></clipPath><clipPath id="95eeb21113"><rect x="0" width="327" y="0" height="375"/></clipPath></defs><g transform="matrix(1, 0, 0, 1, 24, 0)"><g clip-path="url(#95eeb21113)"><g clip-path="url(#2136b1e72a)"><path fill="#ffffff" d="M 325.875 143.3125 L 282.949219 118.527344 L 206.425781 74.347656 L 184.964844 86.738281 L 249.351562 123.910156 L 261.488281 130.921875 L 304.414062 155.703125 L 304.414062 293.628906 L 325.875 281.238281 L 325.875 143.3125 " fill-opacity="1" fill-rule="nonzero"/></g><g clip-path="url(#681b6507f8)"><path fill="#ffffff" d="M 163.5 325.417969 L 240.027344 281.238281 L 240.027344 256.457031 L 240.023438 256.457031 L 163.503906 300.636719 L 120.578125 325.417969 L 22.589844 268.847656 L 1.128906 256.457031 L 1.128906 281.238281 L 120.578125 350.203125 L 163.5 325.417969 " fill-opacity="1" fill-rule="nonzero"/></g><g clip-path="url(#ac822c09d6)"><path fill="#ffffff" d="M 206.425781 24.78125 L 163.5 49.566406 L 86.976562 93.746094 L 86.976562 118.53125 L 163.5 74.347656 L 206.425781 49.566406 L 304.414062 106.136719 L 325.875 118.53125 L 325.875 93.746094 L 206.425781 24.78125 " fill-opacity="1" fill-rule="nonzero"/></g><g clip-path="url(#a72a14e66f)"><path fill="#ffffff" d="M 22.589844 244.0625 L 44.054688 256.457031 L 120.578125 300.636719 L 142.039062 288.246094 L 77.652344 251.070312 L 65.515625 244.0625 L 22.589844 219.28125 L 22.589844 81.355469 L 1.128906 93.746094 L 1.128906 231.671875 L 22.589844 244.0625 " fill-opacity="1" fill-rule="nonzero"/></g><g clip-path="url(#d65fa3f0aa)"><path fill="#ffffff" d="M 282.949219 168.09375 L 261.488281 155.703125 L 261.488281 293.628906 L 163.5 350.203125 L 142.039062 362.59375 L 163.5 374.984375 L 282.949219 306.019531 L 282.949219 168.09375 " fill-opacity="1" fill-rule="nonzero"/></g><path fill="#ffffff" d="M 44.054688 206.890625 L 65.515625 219.28125 L 65.515625 81.355469 L 163.5 24.78125 L 184.964844 12.390625 L 163.5 0 L 44.054688 68.964844 L 44.054688 206.890625 " fill-opacity="1" fill-rule="nonzero"/><g clip-path="url(#4b771383ee)"><path fill="#ffffff" d="M 196.421875 187.496094 L 180.148438 187.496094 L 149.035156 218.609375 L 130.082031 199.65625 L 117.917969 187.496094 L 101.640625 187.496094 L 149.03125 234.886719 L 196.421875 187.496094 " fill-opacity="1" fill-rule="nonzero"/></g><g clip-path="url(#fbad5fd257)"><path fill="#b4b4b4" d="M 130.082031 175.328125 L 149.03125 156.378906 L 153.027344 160.375 L 161.167969 152.238281 L 160.96875 152.035156 L 160.964844 152.035156 L 149.03125 140.101562 L 101.640625 187.496094 L 117.917969 187.496094 L 130.082031 175.328125 " fill-opacity="1" fill-rule="nonzero"/></g><g clip-path="url(#7cdf7779cd)"><path fill="#b4b4b4" d="M 196.898438 199.652344 L 177.945312 218.609375 L 173.949219 214.613281 L 165.8125 222.75 L 166.011719 222.953125 L 177.945312 234.886719 L 225.339844 187.496094 L 209.058594 187.496094 L 196.898438 199.652344 " fill-opacity="1" fill-rule="nonzero"/></g><g clip-path="url(#d261b9617b)"><path fill="#ffffff" d="M 177.945312 156.378906 L 209.058594 187.492188 L 209.058594 187.496094 L 225.339844 187.496094 L 177.945312 140.101562 L 166.011719 152.035156 L 130.554688 187.496094 L 146.832031 187.496094 L 177.945312 156.378906 " fill-opacity="1" fill-rule="nonzero"/></g></g></g></svg>